<svg id="visual" viewBox="0 0 960 540" width="960" height="540" xmlns="http://www.w3.org/2000/svg" xmlns:xlink="http://www.w3.org/1999/xlink" version="1.1"><path d="M0 104L20 107.5C40 111 80 118 120 121.5C160 125 200 125 240 119.7C280 114.3 320 103.7 360 98.3C400 93 440 93 480 86.7C520 80.3 560 67.7 600 61.3C640 55 680 55 720 63.2C760 71.3 800 87.7 840 91.3C880 95 920 86 940 81.5L960 77L960 0L940 0C920 0 880 0 840 0C800 0 760 0 720 0C680 0 640 0 600 0C560 0 520 0 480 0C440 0 400 0 360 0C320 0 280 0 240 0C200 0 160 0 120 0C80 0 40 0 20 0L0 0Z" fill="#375046"></path><path d="M0 206L20 216.8C40 227.7 80 249.3 120 262C160 274.7 200 278.3 240 272C280 265.7 320 249.3 360 252.8C400 256.3 440 279.7 480 274.3C520 269 560 235 600 237.8C640 240.7 680 280.3 720 280.3C760 280.3 800 240.7 840 222.7C880 204.7 920 208.3 940 210.2L960 212L960 75L940 79.5C920 84 880 93 840 89.3C800 85.7 760 69.3 720 61.2C680 53 640 53 600 59.3C560 65.7 520 78.3 480 84.7C440 91 400 91 360 96.3C320 101.7 280 112.3 240 117.7C200 123 160 123 120 119.5C80 116 40 109 20 105.5L0 102Z" fill="#23352e"></path><path d="M0 255L20 264.8C40 274.7 80 294.3 120 315.8C160 337.3 200 360.7 240 367.8C280 375 320 366 360 369.7C400 373.3 440 389.7 480 380.7C520 371.7 560 337.3 600 339.2C640 341 680 379 720 369.2C760 359.3 800 301.7 840 281C880 260.3 920 276.7 940 284.8L960 293L960 210L940 208.2C920 206.3 880 202.7 840 220.7C800 238.7 760 278.3 720 278.3C680 278.3 640 238.7 600 235.8C560 233 520 267 480 272.3C440 277.7 400 254.3 360 250.8C320 247.3 280 263.7 240 270C200 276.3 160 272.7 120 260C80 247.3 40 225.7 20 214.8L0 204Z" fill="#172520"></path><path d="M0 541L20 541C40 541 80 541 120 541C160 541 200 541 240 541C280 541 320 541 360 541C400 541 440 541 480 541C520 541 560 541 600 541C640 541 680 541 720 541C760 541 800 541 840 541C880 541 920 541 940 541L960 541L960 291L940 282.8C920 274.7 880 258.3 840 279C800 299.7 760 357.3 720 367.2C680 377 640 339 600 337.2C560 335.3 520 369.7 480 378.7C440 387.7 400 371.3 360 367.7C320 364 280 373 240 365.8C200 358.7 160 335.3 120 313.8C80 292.3 40 272.7 20 262.8L0 253Z" fill="#141f1b"></path></svg>